<svg xmlns="http://www.w3.org/2000/svg" width="387.8445" height="511.9999" viewBox="0 0 387.8445 511.9999"><title>program-maternal-health-initiative</title><path d="M338.969,83.776A83.7805,83.7805,0,1,1,255.19,0,83.7827,83.7827,0,0,1,338.969,83.776Z" transform="translate(-62.0772)" style="fill:#704c9f"/><path d="M387.93,222.644c-13.778-17.598-29.841-29.841-57.385-29.841-22.203,0-110.182-.499-133.127,0-35.195.767-55.913,16.63-73.449,43.61C104.075,267.018,73.672,337.34,67.351,358.829,59.7,384.842,57.117,418.084,82.652,453.7c29.073,40.549,101.823,60.235,140.781,58.15,42.848-2.297,65.8-26.013,62.731-45.143-3.058-19.126-10.559-32.63-41.308-32.134-47.438.765-88.937-9.719-104.818-22.952-9.186-7.653,0-8.418,11.476-8.418s38.521-4.858,48.2-14.537c5.354-5.354-19.888-26.013-15.302-55.086s31.37-22.952,42.846-9.179c12.162,14.599,27.544,77.277,100.99,72.684-24.487,22.952-34.434,37.485-22.191,57.379s42.085,15.304,61.217,8.418c19.12-6.886,84.156-48.968,82.621-109.408C448.985,317.518,401.696,240.242,387.93,222.644Zm-67.707,163.73a58.531,58.531,0,1,1,58.521-58.531A58.5326,58.5326,0,0,1,320.223,386.374Z" transform="translate(-62.0772)" style="fill:#704c9f"/></svg>